<?xml version="1.0" encoding="utf-8"?><!-- Uploaded to: SVG Repo, www.svgrepo.com, Generator: SVG Repo Mixer Tools -->
<svg width="800px" height="800px" viewBox="0 0 24 24" xmlns="http://www.w3.org/2000/svg"><path d="M23 11v1c-1.108 0-1.36 1.386-1.385 1.544-.284 1.893-1.046 5.66-2.759 7.456H19v1h-1v-.336a2.567 2.567 0 0 1-1.25.336 3.239 3.239 0 0 1-.75-.094V22h-1v-.526c-2.095-1.41-2.804-5.452-3.493-9.388C10.727 7.619 9.918 3 7.25 3c-1.7 0-3.14 2.498-3.755 6.519A2.677 2.677 0 0 1 1 12v-1c1.195 0 1.479-1.473 1.507-1.64C3.223 4.685 4.952 2 7.25 2c3.508 0 4.39 5.04 5.243 9.914.78 4.467 1.589 9.086 4.257 9.086 1.687 0 3.172-2.915 3.876-7.608A2.545 2.545 0 0 1 23 11zm-1"/></svg>