<?xml version="1.0" encoding="utf-8"?>
<!-- Uploaded to: SVG Repo, www.svgrepo.com, Generator: SVG Repo Mixer Tools -->
<svg fill="#000000" width="800px" height="800px" viewBox="0 0 32 32" version="1.1" xmlns="http://www.w3.org/2000/svg">
<title>wave</title>
<path d="M0 22.848q0 2.496 1.216 4.608t3.328 3.328 4.608 1.216 4.576-1.216 3.328-3.328 1.216-4.608v-13.696q0-1.92 1.344-3.232t3.232-1.344q1.888 0 3.232 1.344t1.344 3.232v20.576q0 0.928 0.672 1.6t1.632 0.672 1.6-0.672 0.672-1.6v-20.576q0-2.496-1.216-4.608t-3.328-3.328-4.608-1.216-4.576 1.216-3.328 3.328-1.216 4.608v13.696q0 1.888-1.344 3.232t-3.232 1.344-3.232-1.344-1.344-3.232v-20.576q0-0.96-0.672-1.6t-1.632-0.672-1.6 0.672-0.672 1.6v20.576z"></path>
</svg>