<?xml version="1.0" encoding="utf-8"?><!-- Uploaded to: SVG Repo, www.svgrepo.com, Generator: SVG Repo Mixer Tools -->
<svg width="800px" height="800px" viewBox="0 0 24 24" fill="none" xmlns="http://www.w3.org/2000/svg">
<path d="M3.63063 8.36953L8.32394 3.67622C9.24967 2.75049 10.7642 2.76409 11.7067 3.70659C12.6492 4.64909 12.6628 6.16358 11.737 7.08931L3.69136 15.135C2.76563 16.0607 2.77923 17.5752 3.72172 18.5177C4.66422 19.4602 6.17872 19.4738 7.10445 18.5481L15.1501 10.5024C16.0758 9.57668 17.5903 9.59027 18.5328 10.5328C19.4753 11.4753 19.4897 12.989 18.564 13.9147L15.5461 16.9326C13.7672 18.7115 16.2311 21.5867 18.2159 20.8364C18.7683 20.6276 21 18.9985 21 18.9985" stroke="#000000" stroke-width="2" stroke-linecap="round" stroke-linejoin="round"/>
</svg>